<?xml version="1.0" encoding="utf-8"?>
<!-- Generator: Adobe Illustrator 23.1.1, SVG Export Plug-In . SVG Version: 6.00 Build 0)  -->
<svg version="1.1" id="Capa_1" xmlns="http://www.w3.org/2000/svg" xmlns:xlink="http://www.w3.org/1999/xlink" x="0px" y="0px"
	 viewBox="0 0 100 100" style="enable-background:new 0 0 100 100;" xml:space="preserve">
<g>
	<g>
		<path d="M28.6,70.7c1.4,0,2.6-0.1,3.9-0.4c1.2-0.3,2.3-0.7,3.3-1.3c0.9-0.6,1.7-1.5,2.2-2.5c0.6-1.1,0.8-2.4,0.8-4.1
			c0-3.2-0.9-5.5-2.7-6.9c-1.8-1.4-4.2-2.1-7.2-2.1H13.8v17.3L28.6,70.7L28.6,70.7L28.6,70.7z M27.9,44c2.5,0,4.5-0.6,6.1-1.8
			c1.6-1.2,2.4-3.1,2.4-5.7c0-1.5-0.3-2.7-0.8-3.6c-0.5-0.9-1.2-1.7-2.1-2.2c-0.9-0.5-1.9-0.9-3-1.1c-1.1-0.2-2.3-0.3-3.6-0.3h-13
			V44L27.9,44L27.9,44L27.9,44z M29.6,18.5c3,0,5.7,0.3,8.2,0.8c2.5,0.5,4.6,1.4,6.3,2.6c1.8,1.2,3.1,2.8,4.1,4.8
			c1,2,1.5,4.5,1.5,7.4c0,3.2-0.7,5.8-2.2,7.9c-1.4,2.1-3.6,3.8-6.4,5.2c3.9,1.1,6.8,3.1,8.7,5.9c1.9,2.8,2.9,6.2,2.9,10.1
			c0,3.2-0.6,5.9-1.9,8.2c-1.2,2.3-2.9,4.2-5,5.7c-2.1,1.5-4.5,2.6-7.1,3.3c-2.7,0.7-5.4,1.1-8.2,1.1H0V18.5H29.6L29.6,18.5z"/>
		<path d="M84.3,45.4c-1.5-1.6-3.8-2.5-6.8-2.5c-2,0-3.7,0.3-5,1c-1.3,0.7-2.4,1.5-3.2,2.5c-0.8,1-1.4,2.1-1.7,3.2
			c-0.3,1.1-0.5,2.1-0.6,3h20.4C86.8,49.5,85.8,47.1,84.3,45.4L84.3,45.4z M70.1,69.4c1.9,1.8,4.6,2.7,8.1,2.7
			c2.5,0,4.7-0.6,6.5-1.9c1.8-1.3,2.9-2.6,3.4-4h11c-1.8,5.5-4.5,9.4-8.1,11.7c-3.6,2.4-8.1,3.5-13.2,3.5c-3.6,0-6.8-0.6-9.7-1.7
			c-2.9-1.1-5.3-2.8-7.3-4.9c-2-2.1-3.5-4.6-4.6-7.6c-1.1-2.9-1.6-6.2-1.6-9.7c0-3.4,0.6-6.6,1.7-9.5c1.1-2.9,2.7-5.5,4.8-7.6
			c2.1-2.1,4.5-3.8,7.4-5.1c2.8-1.2,6-1.9,9.5-1.9c3.9,0,7.3,0.7,10.1,2.2c2.9,1.5,5.2,3.5,7.1,6c1.8,2.5,3.2,5.4,4,8.6
			c0.8,3.2,1.1,6.6,0.9,10.1H67C67.2,64.6,68.2,67.6,70.1,69.4L70.1,69.4z"/>
	</g>
	<polygon points="64.9,21.7 90.3,21.7 90.3,28.8 64.9,28.8 64.9,21.7 	"/>
</g>
</svg>
