<?xml version="1.0" encoding="utf-8"?>
<!-- Generator: Adobe Illustrator 23.0.4, SVG Export Plug-In . SVG Version: 6.00 Build 0)  -->
<svg version="1.1" id="Capa_1" xmlns="http://www.w3.org/2000/svg" xmlns:xlink="http://www.w3.org/1999/xlink" x="0px" y="0px"
	 viewBox="0 0 271 330" style="enable-background:new 0 0 271 330;" xml:space="preserve">
<style type="text/css">
	.st0{fill:#FFFFFF;}
</style>
<title>logo</title>
<desc>Created with Sketch.</desc>
<path class="st0" d="M221,47C189.1,15.4,150,0,101.3,0H4.7C2.1,0,0,2.1,0,4.7v320.7c0,2.6,2.1,4.7,4.7,4.7h96.6
	c47.9,0,88.3-15.9,120.1-47.4c32.9-32.6,48.9-71,48.9-117.6C270.2,119.2,253.6,79.5,221,47z M20,86c0.2-0.2,0.5-0.4,0.7-0.6
	c19.4-15.7,42.1-24.5,67.3-26c8.3-0.5,16.9,0,25.5,1.5c22,3.8,41.2,13.3,57.1,28.1c13,12.1,22.9,27.3,28.6,44
	c5.7,16.9,7,34.9,3.6,52.2c-4.3,22.3-14.8,40.9-31.2,55.1c-22.7,19.8-48.6,27.2-77.1,22.1c-28.2-5-49.1-20.7-61.9-46.4
	c-7.1-14.3-9.4-29.8-6.9-46.2c2.2-14.3,8.1-26.8,17.5-37.3c12.5-14,28-21.9,46.1-23.4c2-0.2,3.9-0.2,5.8-0.2
	c10.5,0,20.4,2.5,29.3,7.6c18.2,10.2,28.4,25.5,30.4,45.3c1.2,11.6-1.4,22.2-7.5,31.4c-9.4,14-21.7,21.1-36.8,21.1
	c-1.8,0-3.8-0.1-5.8-0.3c-8.1-0.9-15-4.2-20.7-9.9c-8.3-8.4-11.3-17.6-9-28.1c1.6-7.7,5.9-13.2,12.8-16.3c4.8-2.2,9.3-2.2,13.7,0.1
	c2.4,1.2,3.9,2.8,4.7,5c-1.7-0.7-3.6-0.9-5.5-0.6c-5.1,0.9-8.6,5.2-8.4,10.3c0.1,2,0.5,3.7,1.2,5.3c2.5,5.5,7.9,8.9,13.9,8.9
	c1.6,0,3.2-0.2,4.7-0.7c6.1-1.8,10.6-6,13-12c2-5.1,2.3-10.3,0.9-15.5c-2.7-10.1-9.6-17.2-19.8-20.7c-4-1.3-8.1-2-12.1-2
	c-8.2,0-16,2.8-23.2,8.4c-11.4,9-17.1,21.2-17,36.3c0.1,10.8,3.4,20.5,9.7,28.9c12.7,16.9,30,24.6,51.3,23
	c18.1-1.4,33.1-9.4,44.7-23.8c12.7-15.8,17.7-34,14.9-54.3c-2.5-18.5-10.8-34.1-24.5-46.4c-19.2-17.1-42-24-67.6-20.4
	c-20,2.8-37.1,11.4-50.8,25.7c-4.3,4.5-8.2,9.3-11.5,14.3V86H20z M110.1,284.2c5,0,10-0.3,14.9-1c17.1-2.4,32.6-8.1,46-17
	c32-21.2,50-51.9,53.6-91.1c1.3-13.7-0.2-28-4.3-42.5c-7.3-25.9-22.4-48.4-43.4-65.1c-20.1-15.9-44.4-25.6-70.2-28
	c-13-1.2-26.1-0.5-38.9,2.2c-17.6,3.6-33.6,10-47.8,19.1V20h81.3c43.2,0,77.7,13.5,105.6,41.2c29.2,29,43.3,63,43.3,103.8
	c0,41-14,74.8-42.9,103.4c-28.3,28-63,41.6-106,41.6H20v-74.7c2.9,4.6,6.3,9.1,10,13.3C50.1,271.3,79.3,284.2,110.1,284.2z"/>
</svg>
