<svg xmlns="http://www.w3.org/2000/svg" viewBox="0 0 190.25 175.75"><defs><style>.cls-1{fill:#fff;}</style></defs><title>discosrobar-logo-white</title><g id="Capa_2" data-name="Capa 2"><g id="Capa_1-2" data-name="Capa 1"><polygon class="cls-1" points="1.1 9.27 1.1 25.6 5.67 29.66 10.36 25.6 10.36 9.27 180.98 9.27 180.98 166.48 10.36 166.48 10.36 150.14 5.63 146.08 1.1 150.14 1.1 166.48 1.1 175.75 10.36 175.75 180.98 175.75 190.25 175.75 190.25 166.48 190.25 9.27 190.25 0 180.98 0 10.36 0 1.1 0 1.1 9.27"/><path class="cls-1" d="M26.73,38.52l3.9,18.25h10.2v81.6h29V106.84H99.17l26.38,31.53h33.81L130,104.42c15.69-4.56,26.24-15.12,26.24-31.81,0-22.82-19.83-34.09-45.36-34.09Zm82,47.22H69.64V60.63h39.08c10.41,0,18,2.85,18,12.55S119.13,85.74,108.72,85.74Z"/><path class="cls-1" d="M5.54,123.15c3.27,0,5.2,2.54,5.2,6.53v5.81H.34v-5.81C.34,125.69,2.27,123.15,5.54,123.15Zm0,3.09c-1.84,0-2.79,1.45-2.79,3.68v2.54H8.33v-2.54C8.33,127.69,7.38,126.24,5.54,126.24Z"/><path class="cls-1" d="M10.74,116.85H.34v-3h10.4Z"/><path class="cls-1" d="M7.48,94.52c2.14,0,3.6,2,3.6,5.75a10.33,10.33,0,0,1-2,6.55l-1.87-1.59a7.62,7.62,0,0,0,1.62-5c0-1.78-.33-2.67-1-2.67s-.89.83-1.07,3c-.26,3.08-1,5.89-3.26,5.89S0,104,0,100.7A10,10,0,0,1,1.54,95l1.89,1.53a7.12,7.12,0,0,0-1.16,4.17c0,1.22.2,2.69.94,2.69s.78-1.21.93-3.06C4.43,96.93,5.09,94.52,7.48,94.52Z"/><path class="cls-1" d="M7,79.12l1.34-2.6a6.78,6.78,0,0,1,2.72,5.87c0,3.92-2,6.56-5.54,6.56S0,86.31,0,82.27a6.66,6.66,0,0,1,2.7-5.7L4,79.18a3.44,3.44,0,0,0-1.57,3.13c0,2.14,1.08,3.57,3.07,3.57s3.07-1.43,3.07-3.57A3.51,3.51,0,0,0,7,79.12Z"/><path class="cls-1" d="M5.54,71.26C2,71.26,0,68.6,0,64.49S2,57.7,5.54,57.7s5.54,2.68,5.54,6.79S9.06,71.26,5.54,71.26Zm0-10.47c-2,0-3.07,1.41-3.07,3.7s1.11,3.7,3.07,3.7,3.07-1.41,3.07-3.7S7.5,60.79,5.54,60.79Z"/><path class="cls-1" d="M7.48,40c2.14,0,3.6,2,3.6,5.74a10.29,10.29,0,0,1-2,6.55L7.17,50.69a7.62,7.62,0,0,0,1.62-5c0-1.78-.33-2.67-1-2.67s-.89.83-1.07,3c-.26,3.09-1,5.9-3.26,5.9S0,49.46,0,46.16a10,10,0,0,1,1.54-5.7L3.43,42a7.16,7.16,0,0,0-1.16,4.17c0,1.22.2,2.69.94,2.69s.78-1.2.93-3.06C4.43,42.39,5.09,40,7.48,40Z"/></g></g></svg>