<?xml version="1.0" encoding="utf-8"?>
<!-- Generator: Adobe Illustrator 23.1.1, SVG Export Plug-In . SVG Version: 6.00 Build 0)  -->
<svg version="1.1" id="Capa_1" xmlns="http://www.w3.org/2000/svg" xmlns:xlink="http://www.w3.org/1999/xlink" x="0px" y="0px"
	 viewBox="0 0 100 100" style="enable-background:new 0 0 100 100;" xml:space="preserve">
<style type="text/css">
	.st0{fill:#050800;}
</style>
<g>
	<path class="st0" d="M50,0C36.4,0,34.7,0.1,29.4,0.3c-5.3,0.2-9,1.1-12.1,2.3c-3.3,1.3-6.1,3-8.9,5.8c-2.8,2.8-4.5,5.6-5.8,8.9
		c-1.2,3.2-2.1,6.8-2.3,12.1C0.1,34.7,0,36.4,0,50c0,13.6,0.1,15.3,0.3,20.6c0.2,5.3,1.1,9,2.3,12.1c1.3,3.3,3,6.1,5.8,8.9
		c2.8,2.8,5.6,4.5,8.9,5.8c3.2,1.2,6.8,2.1,12.1,2.3c5.3,0.2,7,0.3,20.6,0.3c13.6,0,15.3-0.1,20.6-0.3c5.3-0.2,9-1.1,12.1-2.3
		c3.3-1.3,6.1-3,8.9-5.8c2.8-2.8,4.5-5.6,5.8-8.9c1.2-3.2,2.1-6.8,2.3-12.1c0.2-5.3,0.3-7,0.3-20.6c0-13.6-0.1-15.3-0.3-20.6
		c-0.2-5.3-1.1-9-2.3-12.1c-1.3-3.3-3-6.1-5.8-8.9c-2.8-2.8-5.6-4.5-8.9-5.8c-3.2-1.2-6.8-2.1-12.1-2.3C65.3,0.1,63.6,0,50,0L50,0
		L50,0z M50,9c13.4,0,14.9,0.1,20.2,0.3c4.9,0.2,7.5,1,9.3,1.7c2.3,0.9,4,2,5.7,3.7c1.7,1.7,2.8,3.4,3.7,5.7
		c0.7,1.8,1.5,4.4,1.7,9.3C90.9,35.1,91,36.6,91,50c0,13.4-0.1,14.9-0.3,20.2c-0.2,4.9-1,7.5-1.7,9.3c-0.9,2.3-2,4-3.7,5.7
		c-1.7,1.7-3.4,2.8-5.7,3.7c-1.8,0.7-4.4,1.5-9.3,1.7C64.9,90.9,63.4,91,50,91c-13.4,0-14.9-0.1-20.2-0.3c-4.9-0.2-7.5-1-9.3-1.7
		c-2.3-0.9-4-2-5.7-3.7c-1.7-1.7-2.8-3.4-3.7-5.7c-0.7-1.8-1.5-4.4-1.7-9.3C9.1,64.9,9,63.4,9,50c0-13.4,0.1-14.9,0.3-20.2
		c0.2-4.9,1-7.5,1.7-9.3c0.9-2.3,2-4,3.7-5.7c1.7-1.7,3.4-2.8,5.7-3.7c1.8-0.7,4.4-1.5,9.3-1.7C35.1,9.1,36.6,9,50,9"/>
	<path class="st0" d="M50,66.7c-9.2,0-16.7-7.5-16.7-16.7c0-9.2,7.5-16.7,16.7-16.7c9.2,0,16.7,7.5,16.7,16.7
		C66.7,59.2,59.2,66.7,50,66.7L50,66.7z M50,24.3c-14.2,0-25.7,11.5-25.7,25.7c0,14.2,11.5,25.7,25.7,25.7
		c14.2,0,25.7-11.5,25.7-25.7C75.7,35.8,64.2,24.3,50,24.3L50,24.3z"/>
	<path class="st0" d="M82.7,23.3c0,3.3-2.7,6-6,6c-3.3,0-6-2.7-6-6c0-3.3,2.7-6,6-6C80,17.3,82.7,20,82.7,23.3L82.7,23.3z"/>
</g>
</svg>
