<?xml version="1.0" encoding="utf-8"?>
<!-- Generator: Adobe Illustrator 21.0.0, SVG Export Plug-In . SVG Version: 6.00 Build 0)  -->
<svg version="1.1" id="Capa_1" xmlns="http://www.w3.org/2000/svg" xmlns:xlink="http://www.w3.org/1999/xlink" x="0px" y="0px"
	 width="136px" height="36px" viewBox="0 0 136 36" style="enable-background:new 0 0 136 36;" xml:space="preserve">
<style type="text/css">
	.st0{opacity:0.3;fill:#FAFAFA;}
	.st1{fill:#FFFFFF;}
	.st2{fill:none;}
</style>
<g>
	<path class="st0" d="M118,30H18c-6.6,0-12-5.4-12-12v0c0-6.6,5.4-12,12-12h100c6.6,0,12,5.4,12,12v0C130,24.6,124.6,30,118,30z"/>
	<g>
		<path class="st1" d="M101.2,18.2c0,1.5-0.5,2.8-1.6,3.8c-1,1-2.4,1.5-3.9,1.5S92.9,23,91.8,22c-1-1-1.6-2.3-1.6-3.8
			c0-1.5,0.5-2.8,1.6-3.8c1-1,2.4-1.6,3.9-1.6s2.9,0.5,3.9,1.6C100.7,15.4,101.2,16.7,101.2,18.2z M93.2,18.2c0,0.9,0.2,1.5,0.7,2.1
			c0.5,0.5,1.1,0.8,1.9,0.8c0.8,0,1.4-0.3,1.9-0.8c0.5-0.5,0.7-1.2,0.7-2.1c0-0.9-0.2-1.5-0.7-2.1c-0.5-0.5-1.1-0.8-1.9-0.8
			c-0.8,0-1.4,0.3-1.9,0.8C93.4,16.6,93.2,17.3,93.2,18.2z"/>
		<path class="st1" d="M88.7,18.2c0-2.7-1.8-5.5-5.3-5.4c-1.5,0-2.7,1.3-2.7,1.3v-1.2h-2.8v14.2h2.8V22c0.8,1,1.6,1.5,3,1.5
			C86.2,23.5,88.7,21.3,88.7,18.2z M80.8,18.2c0-0.9,0.2-1.5,0.7-2.1c0.5-0.5,1.1-0.8,1.9-0.8c0.8,0,1.4,0.3,1.9,0.8
			c0.5,0.5,0.7,1.2,0.7,2.1c0,0.9-0.2,1.5-0.7,2.1c-0.5,0.5-1.1,0.8-1.9,0.8c-0.8,0-1.4-0.3-1.9-0.8C81.1,19.7,80.8,19,80.8,18.2z"
			/>
		<path class="st1" d="M113.8,18.2c0,1.5-0.5,2.8-1.6,3.8c-1,1-2.4,1.5-3.9,1.5c-1.6,0-2.9-0.5-3.9-1.5c-1-1-1.6-2.3-1.6-3.8
			c0-1.5,0.5-2.8,1.6-3.8c1-1,2.4-1.6,3.9-1.6c1.6,0,2.9,0.5,3.9,1.6C113.2,15.4,113.8,16.7,113.8,18.2z M105.7,18.2
			c0,0.9,0.2,1.5,0.7,2.1c0.5,0.5,1.1,0.8,1.9,0.8c0.8,0,1.4-0.3,1.9-0.8s0.7-1.2,0.7-2.1c0-0.9-0.2-1.5-0.7-2.1s-1.1-0.8-1.9-0.8
			c-0.8,0-1.4,0.3-1.9,0.8C105.9,16.6,105.7,17.3,105.7,18.2z"/>
		<path class="st1" d="M118.2,23.4h-2.8V8.8h2.8V23.4z"/>
		<path class="st2" d="M118.1,6H77.9h-2.9v24h2.9h40.3h2.9V6H118.1z M118.2,27.2H77.8V8.8h40.4V27.2z"/>
	</g>
	<g>
		<path class="st1" d="M15.6,13.9h0.5l3,4.4l3-4.4h0.5v7.4H22v-6.4l-2.9,4.3h0l-2.9-4.3v6.4h-0.5V13.9z"/>
		<path class="st1" d="M28.7,13.8h0.5l3.5,7.5H32l-0.9-2.1h-4.4l-0.9,2.1h-0.6L28.7,13.8z M30.9,18.7l-2-4.3l-2,4.3H30.9z"/>
		<path class="st1" d="M35.3,13.9h2.5c2.3,0,3.9,1.6,3.9,3.7v0c0,2.1-1.6,3.7-3.9,3.7h-2.5V13.9z M37.8,20.8c2.1,0,3.4-1.4,3.4-3.2
			v0c0-1.8-1.3-3.2-3.4-3.2h-1.9v6.4H37.8z"/>
		<path class="st1" d="M44.6,13.9h5.3v0.5h-4.7v2.9h4.3v0.5h-4.3v3H50v0.5h-5.3V13.9z"/>
		<path class="st1" d="M57,13.9h3.1c0.8,0,1.5,0.2,1.9,0.7c0.3,0.3,0.5,0.7,0.5,1.2v0c0,1-0.7,1.5-1.3,1.8c0.9,0.2,1.7,0.7,1.7,1.8
			v0c0,1.2-1.1,2-2.7,2H57V13.9z M60,17.3c1.1,0,1.9-0.5,1.9-1.5v0c0-0.8-0.7-1.4-1.9-1.4h-2.5v2.9H60z M60.3,20.8
			c1.3,0,2.1-0.6,2.1-1.5v0c0-0.9-0.8-1.4-2.3-1.4h-2.5v3H60.3z"/>
		<path class="st1" d="M67.9,18.4l-3.2-4.5h0.7l2.8,4l2.8-4h0.7l-3.2,4.5v2.9h-0.6V18.4z"/>
	</g>
</g>
</svg>
