<svg id="e5305c69-c1c1-4d89-943d-1d18cfc7853f" data-name="Capa 1" xmlns="http://www.w3.org/2000/svg" viewBox="0 0 500 261"><defs><style>.\34 ea76c0e-36c3-4eae-8604-35b7e324d789{fill:#304ffe;}.dc1a7970-c834-4db7-ac38-ac6e54fa047e{fill:none;}</style></defs><title>pool-logotipoMesa de trabajo 1</title><path class="4ea76c0e-36c3-4eae-8604-35b7e324d789" d="M285.16,132.9q0,24.53-17,41.3T225.52,191q-25.68,0-42.66-16.77t-17-41.3q0-24.53,17-41.4t42.66-16.87q25.68,0,42.66,16.87T285.16,132.9Zm-87.62,0q0,13.83,7.86,22.54t20.12,8.7q12.26,0,20.12-8.7t7.86-22.54q0-13.83-7.86-22.64a27.4,27.4,0,0,0-40.24,0Q197.53,119.06,197.53,132.9Z"/><path class="4ea76c0e-36c3-4eae-8604-35b7e324d789" d="M150.6,133.09c0-28.75-19.75-58.82-58.06-57.8C76.2,75.49,63,89.54,63,89.54V77H32V230H63V174.61c8.27,11,17.38,16.52,32.77,16.52C123.21,191.12,150.6,167.32,150.6,133.09ZM64,132.77q0-13.86,7.88-22.69a25.81,25.81,0,0,1,20.17-8.82,25.82,25.82,0,0,1,20.17,8.82q7.89,8.82,7.88,22.69t-7.88,22.59q-7.87,8.72-20.17,8.72t-20.17-8.72Q64,146.63,64,132.77Z"/><path class="4ea76c0e-36c3-4eae-8604-35b7e324d789" d="M421,132.9q0,24.53-17,41.3T361.39,191q-25.68,0-42.66-16.77t-17-41.3q0-24.53,17-41.4t42.66-16.87q25.68,0,42.66,16.87T421,132.9Zm-87.62,0q0,13.83,7.86,22.54t20.12,8.7q12.26,0,20.12-8.7t7.86-22.54q0-13.83-7.86-22.64a27.4,27.4,0,0,0-40.24,0Q333.4,119.06,333.41,132.9Z"/><path class="4ea76c0e-36c3-4eae-8604-35b7e324d789" d="M468,190H437V34h31Z"/><path class="dc1a7970-c834-4db7-ac38-ac6e54fa047e" d="M468.52,0H0V261H500V0ZM468,230H31V32H468Z"/></svg>