<?xml version="1.0" encoding="utf-8"?>
<!-- Generator: Adobe Illustrator 21.0.0, SVG Export Plug-In . SVG Version: 6.00 Build 0)  -->
<svg version="1.1" id="Capa_1" xmlns="http://www.w3.org/2000/svg" xmlns:xlink="http://www.w3.org/1999/xlink" x="0px" y="0px"
	 viewBox="0 0 143 64" style="enable-background:new 0 0 143 64;" xml:space="preserve">
<style type="text/css">
	.st0{fill:#FFFFFF;}
</style>
<g>
	<path class="st0" d="M82.7,32.3c0,5.3-1.8,9.8-5.5,13.5c-3.7,3.7-8.3,5.5-13.9,5.5S53,49.4,49.3,45.8c-3.7-3.7-5.5-8.1-5.5-13.5
		s1.8-9.8,5.5-13.5c3.7-3.7,8.3-5.5,13.9-5.5s10.2,1.8,13.9,5.5C80.8,22.4,82.7,27,82.7,32.3z M54.1,32.3c0,3,0.9,5.5,2.6,7.4
		c1.7,1.9,3.9,2.8,6.6,2.8c2.7,0,4.9-0.9,6.6-2.8c1.7-1.9,2.6-4.3,2.6-7.4c0-3-0.9-5.5-2.6-7.4C68,23,65.9,22,63.2,22
		c-2.7,0-4.9,1-6.6,2.9C54.9,26.8,54.1,29.3,54.1,32.3z"/>
	<path class="st0" d="M38.3,32.3c0-9.4-6.4-19.2-18.7-18.9c-5.3,0.1-9.5,4.7-9.5,4.7V14H0v50h10V45.9c2.7,3.6,5.6,5.4,10.6,5.4
		C29.4,51.3,38.3,43.5,38.3,32.3z M10.5,32.2c0-3,0.9-5.5,2.6-7.4c1.7-1.9,3.9-2.9,6.6-2.9c2.7,0,4.9,1,6.6,2.9
		c1.7,1.9,2.6,4.4,2.6,7.4c0,3-0.9,5.5-2.6,7.4c-1.7,1.9-3.9,2.8-6.6,2.8c-2.7,0-4.9-0.9-6.6-2.8C11.3,37.7,10.5,35.3,10.5,32.2z"/>
	<path class="st0" d="M127,32.3c0,5.3-1.8,9.8-5.5,13.5c-3.7,3.7-8.3,5.5-13.9,5.5c-5.6,0-10.2-1.8-13.9-5.5
		c-3.7-3.7-5.5-8.1-5.5-13.5s1.8-9.8,5.5-13.5c3.7-3.7,8.3-5.5,13.9-5.5c5.6,0,10.2,1.8,13.9,5.5C125.2,22.4,127,27,127,32.3z
		 M98.4,32.3c0,3,0.9,5.5,2.6,7.4c1.7,1.9,3.9,2.8,6.6,2.8c2.7,0,4.9-0.9,6.6-2.8s2.6-4.3,2.6-7.4c0-3-0.9-5.5-2.6-7.4
		s-3.9-2.9-6.6-2.9c-2.7,0-4.9,1-6.6,2.9C99.3,26.8,98.4,29.3,98.4,32.3z"/>
	<path class="st0" d="M143,51h-10V0h10V51z"/>
</g>
</svg>
