<?xml version="1.0" encoding="utf-8"?>
<!-- Generator: Adobe Illustrator 21.0.0, SVG Export Plug-In . SVG Version: 6.00 Build 0)  -->
<svg version="1.1" id="Capa_1" xmlns="http://www.w3.org/2000/svg" xmlns:xlink="http://www.w3.org/1999/xlink" x="0px" y="0px"
	 viewBox="0 0 117 48" style="enable-background:new 0 0 117 48;" xml:space="preserve">
<style type="text/css">
	.st0{fill:#60265A;}
	.st1{fill:#69C0DC;}
	.st2{fill:#7F2F70;}
	.st3{fill:#D24052;}
	.st4{fill:#B63543;}
</style>
<g>
	<g>
		<polygon class="st0" points="29,48 33.4,43.5 33.4,30.1 29,34.6 		"/>
		<polygon class="st1" points="33.4,43.4 16.6,26.7 0,43.3 4.4,47.7 16.6,35.5 29,48 		"/>
		<polygon class="st2" points="33.4,30.1 16.6,13.3 0,29.9 4.4,34.4 16.6,22.2 29,34.6 		"/>
		<polygon class="st3" points="33.4,16.7 16.6,0 0,16.6 4.4,21 16.6,8.8 29,21.3 		"/>
		<polygon class="st4" points="0,16.6 4.4,21 4.4,34.4 0,30.1 		"/>
	</g>
	<g>
		<path class="st1" d="M46.9,23.1c-0.7,0-1.4-0.1-2-0.2c-0.7-0.2-1.3-0.4-1.9-0.7c0,0-0.1,0-0.1-0.1c-0.1,0-0.1-0.1-0.1-0.1
			c0,0,0,0,0.1-0.1c0-0.1,0.1-0.1,0.1-0.2c0.1-0.1,0.1-0.2,0.2-0.3c0.1-0.1,0.1-0.2,0.2-0.4c0.1-0.2,0.3-0.5,0.4-0.7
			c0.1-0.2,0.2-0.4,0.3-0.5c0.1,0,0.2,0.1,0.3,0.2c0.5,0.2,1,0.4,1.4,0.5c0.5,0.1,1,0.2,1.5,0.2c0.1,0,0.3,0,0.5,0
			c0.2,0,0.3,0,0.5-0.1c0.1-0.1,0.3-0.1,0.3-0.2c0.1-0.1,0.1-0.3,0.1-0.5c0-0.1,0-0.2-0.1-0.3c-0.1-0.1-0.1-0.1-0.2-0.2
			c-0.1-0.1-0.2-0.1-0.3-0.2c-0.1,0-0.2-0.1-0.3-0.1c-0.2-0.1-0.4-0.1-0.6-0.2c-0.2,0-0.4-0.1-0.6-0.1c-0.3-0.1-0.5-0.1-0.8-0.2
			c-0.2-0.1-0.5-0.1-0.7-0.2c-0.2-0.1-0.5-0.1-0.7-0.2c-0.2-0.1-0.4-0.2-0.6-0.3c-0.4-0.2-0.7-0.5-0.9-0.9c-0.2-0.4-0.3-0.9-0.3-1.5
			c0-0.2,0-0.4,0.1-0.7c0-0.2,0.1-0.4,0.2-0.6c0.2-0.4,0.4-0.7,0.8-1c0.3-0.3,0.6-0.5,1-0.6c0.4-0.1,0.8-0.3,1.2-0.3
			c0.4-0.1,0.8-0.1,1.2-0.1c0.7,0,1.3,0.1,2,0.2c0.7,0.2,1.3,0.4,1.9,0.8c-0.2,0.4-0.4,0.7-0.6,1.1c-0.2,0.4-0.4,0.7-0.6,1.1
			c-0.5-0.2-1-0.4-1.5-0.6c-0.5-0.2-1-0.2-1.6-0.2c-0.1,0-0.3,0-0.4,0c-0.1,0-0.3,0-0.4,0.1c-0.1,0.1-0.2,0.1-0.3,0.2
			c-0.1,0.1-0.1,0.2-0.1,0.4c0,0.1,0,0.2,0.1,0.3c0.1,0.1,0.2,0.2,0.3,0.3c0.2,0.1,0.4,0.1,0.6,0.2c0.2,0.1,0.5,0.1,0.8,0.2
			c0.3,0.1,0.6,0.1,0.9,0.2c0.3,0.1,0.6,0.2,0.9,0.3c0.3,0.1,0.6,0.2,0.9,0.4c0.3,0.1,0.5,0.3,0.7,0.5c0.2,0.2,0.4,0.4,0.5,0.7
			c0.1,0.2,0.2,0.4,0.2,0.7c0,0.2,0.1,0.5,0.1,0.7c0,0.7-0.1,1.2-0.4,1.6c-0.3,0.4-0.6,0.8-1.1,1c-0.4,0.3-0.9,0.4-1.5,0.5
			C48,23,47.5,23.1,46.9,23.1z"/>
		<path class="st1" d="M60.9,15.1h-2.8v7.7h-2.8v-7.7h-2.8l-0.2-0.2v-2.3h8.8v2.3L60.9,15.1z"/>
		<path class="st1" d="M77.7,22.8l-1.8-3.2h-1.7l0,3.2h-2.8V12.5h5.1c0.2,0,0.5,0,0.8,0.1c0.3,0.1,0.5,0.2,0.7,0.4
			c0.2,0.2,0.5,0.3,0.7,0.5c0.2,0.2,0.4,0.4,0.5,0.6c0.2,0.3,0.3,0.6,0.4,0.9c0.1,0.3,0.1,0.7,0.1,1c0,0.5-0.1,1-0.4,1.4
			c-0.2,0.4-0.6,0.8-1,1.1l2.4,4.2H77.7z M75.7,14.8h-1.6V17h1.6c0.2,0,0.3,0,0.4-0.1c0.1-0.1,0.3-0.1,0.4-0.2
			c0.1-0.1,0.2-0.2,0.3-0.3c0.1-0.1,0.1-0.3,0.1-0.4c0-0.2,0-0.3-0.1-0.4c-0.1-0.1-0.1-0.2-0.3-0.3c-0.1-0.1-0.2-0.2-0.4-0.2
			C76,14.8,75.8,14.8,75.7,14.8z"/>
		<path class="st1" d="M89.4,15.1h-2.8v7.7h-2.8v-7.7H81l-0.2-0.2v-2.3h8.8v2.3L89.4,15.1z"/>
		<path class="st1" d="M50.6,35.4v-5.3l-2.2,3.6c0,0.1-0.1,0.1-0.1,0.1c-0.1,0-0.1,0-0.2,0c-0.1,0-0.1,0-0.2,0
			c-0.1,0-0.1-0.1-0.1-0.1l-2.2-3.6v5.3H43V25.1h2.5c0.1,0,0.2,0,0.2,0.1l2.4,4.1l2.4-4.1c0.1-0.1,0.1-0.1,0.2-0.1h2.5v10.2H50.6z"
			/>
		<path class="st1" d="M55.1,35.4V25.1h8.2v2.4h-5.5V29h5.2v2.4h-5.2v1.5h5.5v2.4H55.1z"/>
		<path class="st1" d="M71.2,35.4l-3.6-5.5v5.5h-2.7V25.1h2.7l3.6,5.5v-5.5h2.7v10.2H71.2z"/>
		<path class="st1" d="M80.3,35.4h-4.6V25.1h4.6c0.7,0,1.4,0.1,2,0.4c0.6,0.3,1.2,0.6,1.6,1.1c0.5,0.5,0.8,1,1.1,1.6
			c0.3,0.6,0.4,1.3,0.4,2c0,0.7-0.1,1.4-0.4,2c-0.3,0.6-0.6,1.2-1.1,1.6c-0.5,0.5-1,0.8-1.6,1.1C81.7,35.2,81.1,35.4,80.3,35.4z
			 M80,27.6h-1.6v5.3H80c0.4,0,0.7-0.1,1-0.2c0.3-0.1,0.6-0.3,0.8-0.6c0.2-0.2,0.4-0.5,0.6-0.8c0.1-0.3,0.2-0.7,0.2-1
			c0-0.4-0.1-0.7-0.2-1c-0.1-0.3-0.3-0.6-0.6-0.8c-0.2-0.2-0.5-0.4-0.8-0.6C80.7,27.7,80.4,27.6,80,27.6z"/>
		<path class="st1" d="M91.7,35.7c-0.8,0-1.5-0.1-2.1-0.4c-0.7-0.3-1.2-0.7-1.7-1.2c-0.5-0.5-0.9-1.1-1.2-1.7
			c-0.3-0.7-0.4-1.4-0.4-2.1c0-0.7,0.1-1.5,0.4-2.1c0.3-0.7,0.7-1.2,1.2-1.7c0.5-0.5,1.1-0.9,1.7-1.2c0.7-0.3,1.4-0.4,2.1-0.4
			c0.7,0,1.5,0.1,2.1,0.4c0.7,0.3,1.2,0.7,1.7,1.2c0.5,0.5,0.9,1.1,1.2,1.7c0.3,0.7,0.4,1.4,0.4,2.1c0,0.7-0.1,1.5-0.4,2.1
			c-0.3,0.7-0.7,1.2-1.2,1.7c-0.5,0.5-1.1,0.9-1.7,1.2C93.1,35.5,92.4,35.7,91.7,35.7z M91.7,27.5c-0.4,0-0.7,0.1-1.1,0.2
			c-0.3,0.2-0.6,0.4-0.9,0.6c-0.2,0.3-0.4,0.6-0.6,0.9c-0.1,0.3-0.2,0.7-0.2,1.1c0,0.4,0.1,0.7,0.2,1.1s0.3,0.6,0.6,0.9
			c0.2,0.3,0.5,0.5,0.9,0.6c0.3,0.2,0.7,0.2,1.1,0.2c0.4,0,0.7-0.1,1.1-0.2c0.3-0.2,0.6-0.4,0.9-0.6c0.2-0.3,0.4-0.6,0.6-0.9
			c0.1-0.3,0.2-0.7,0.2-1.1c0-0.4-0.1-0.7-0.2-1.1c-0.1-0.3-0.3-0.6-0.6-0.9c-0.2-0.3-0.5-0.5-0.9-0.6
			C92.4,27.5,92.1,27.5,91.7,27.5z"/>
		<path class="st1" d="M97.9,35.4v-0.5l4-7.2h-4.3v-2.6h8.5v0.5l-4,7.2h4.1v2.6H97.9z"/>
		<path class="st3" d="M100.3,19c0,0.5-0.1,0.9-0.2,1.3c-0.2,0.4-0.4,0.8-0.6,1.1c-0.3,0.3-0.6,0.6-1,0.9c-0.4,0.2-0.8,0.4-1.2,0.6
			C97,22.9,96.8,23,96.6,23c-0.2,0-0.4,0.1-0.6,0.1c-0.2,0-0.4,0-0.6-0.1c-0.2,0-0.4-0.1-0.6-0.1c-0.4-0.1-0.8-0.3-1.2-0.6
			c-0.4-0.2-0.7-0.5-1-0.9c-0.3-0.3-0.5-0.7-0.6-1.1c-0.2-0.4-0.2-0.9-0.2-1.3v-6.5h2.9v6.3c0,0.2,0,0.4,0.1,0.5
			c0.1,0.2,0.2,0.3,0.3,0.4c0.1,0.1,0.3,0.2,0.5,0.3c0.2,0.1,0.3,0.1,0.5,0.1c0.2,0,0.4,0,0.5-0.1c0.2-0.1,0.3-0.2,0.5-0.3
			c0.1-0.1,0.2-0.3,0.3-0.4c0.1-0.2,0.1-0.3,0.1-0.5v-6.3h2.9V19z"/>
		<polygon class="st1" points="66.3,12.8 63.9,12.8 60.1,22.8 63,22.8 65.1,16.3 67.2,22.8 70.1,22.8 		"/>
		<polygon class="st1" points="113.1,25.2 110.7,25.2 106.9,35.4 109.8,35.4 111.9,28.8 114,35.4 116.9,35.4 		"/>
		<path class="st3" d="M109.6,14.6c-0.2-0.4-0.5-0.8-0.8-1.1c-0.3-0.3-0.7-0.5-1.2-0.7c-0.5-0.2-0.9-0.3-1.4-0.3h-4.6v10.2h2.7v-8
			h1.7c0.2,0,0.3,0,0.4,0.1c0.1,0.1,0.3,0.1,0.4,0.2c0.1,0.1,0.2,0.2,0.2,0.3c0.1,0.1,0.1,0.3,0.1,0.4c0,0.2,0,0.3-0.1,0.4
			c-0.1,0.1-0.1,0.2-0.2,0.3c-0.1,0.1-0.2,0.2-0.4,0.2c-0.1,0.1-0.3,0.1-0.4,0.1H105v2.6h1.1c0.5,0,1-0.1,1.4-0.3
			c0.5-0.2,0.9-0.5,1.2-0.8c0.3-0.3,0.6-0.7,0.8-1.2c0.2-0.4,0.3-0.9,0.3-1.4C109.9,15.4,109.8,15,109.6,14.6z"/>
	</g>
</g>
</svg>
